# Blender v2.77 (sub 0) OBJ File: 'ground.blend'
# www.blender.org
o Plane.001_Plane.003
v -12.654941 -4.102926 18.470318
v -12.654943 -3.096368 14.078926
v -12.654944 1.312361 7.104680
v -12.654943 -0.451982 9.226559
v -7.520572 -7.817839 20.730156
v -12.654945 2.634340 4.982800
v -12.654946 5.108892 1.312223
v 10.804635 -0.070495 14.899160
v 10.804632 5.482670 4.511780
v 10.804637 -2.714880 19.751526
v 5.000003 -8.732325 21.278358
v 10.804631 5.482670 2.011780
v 10.804634 1.693849 12.777281
v 10.804633 3.015827 10.655402
v -3.749997 -9.265982 20.945881
v -12.654948 5.108891 -1.187775
v -2.499997 -9.354098 20.890982
v 0.000003 -9.354098 20.890980
v -7.520574 -6.811280 16.338764
v 10.804632 5.482670 7.011780
v -7.520576 -2.402551 9.364517
v 2.500003 -9.354098 20.890980
v -7.520576 -1.080572 7.242639
v -7.520578 1.393980 3.572063
v 3.750003 -9.354098 20.890980
v 10.804629 5.482670 -0.488220
v 17.384762 7.462667 1.118154
v -7.520575 -4.166894 11.486397
v 17.384760 7.462667 -1.381846
v 17.384764 7.462667 3.618154
v 10.804638 -3.721439 24.142918
v 17.384768 1.909502 14.005533
v 11.270417 9.036163 -6.186796
v 5.000001 -7.725766 16.886967
v 17.384769 -0.734883 18.857901
v 17.850548 11.016161 -7.080425
v 4.999999 -3.317037 9.912721
v 4.999997 0.471785 4.147221
v 4.999998 -1.995058 7.790842
v 17.384760 7.462667 -3.881847
v 17.384766 3.673845 11.883654
v 17.384766 4.995825 9.761775
v -3.750003 -0.156970 4.147223
v -12.654948 5.108891 -3.687776
v 10.804629 5.482671 -2.988220
v 5.000000 -5.081380 12.034600
v -3.749999 -8.259422 16.554489
v -3.750001 -3.850693 9.580244
v -2.500003 -0.260790 4.147223
v -3.750002 -2.528714 7.458365
v -0.000003 -0.260790 4.147222
v 12.920865 12.689018 -12.180168
v 17.384764 7.462667 6.118154
v -2.499999 -8.347540 16.499590
v -2.500001 -3.938811 9.525344
v 2.499997 -0.260790 4.147221
v -2.500002 -2.616832 7.403465
v 0.000001 -8.347540 16.499590
v -0.000001 -3.938811 9.525343
v 3.749997 -0.260790 4.147221
v 3.749999 -3.858569 9.575335
v -0.000002 -2.616832 7.403464
v 2.500001 -8.347540 16.499588
v 3.749998 -2.536590 7.453455
v -7.520578 1.393980 1.072064
v 2.499999 -3.938811 9.525343
v 3.750001 -8.347540 16.499588
v 19.500994 14.669014 -13.073793
v 2.499998 -2.616832 7.403463
v -3.750000 -5.615036 11.702123
v -2.500000 -5.703153 11.647223
v -0.000000 -5.703153 11.647223
v 2.500000 -5.703153 11.647222
v 3.750000 -5.703153 11.647222
v 17.384769 -1.741442 23.249290
v 4.999996 0.471785 1.647220
v -12.654949 5.108892 -6.187777
v -3.750004 -0.156970 1.647223
v -2.500004 -0.260790 1.647223
v -0.000004 -0.260790 1.647223
v 2.499996 -0.260790 1.647222
v 3.749996 -0.260790 1.647222
v -12.189161 8.662385 -11.886353
v -7.520579 1.393980 -1.427937
v -10.538713 12.315241 -17.879725
v 4.999995 0.471785 -0.852780
v -12.654950 5.108892 -8.687777
v -3.750005 -0.156970 -0.852777
v -2.500005 -0.260790 -0.852777
v -0.000004 -0.260790 -0.852778
v 2.499995 -0.260790 -0.852779
v 3.749995 -0.260790 -0.852779
v -7.520580 1.393980 -3.927937
v -7.054792 4.947473 -9.626514
v -5.404345 8.600327 -15.619886
v 4.999995 0.471785 -3.352780
v 5.465783 4.025276 -9.051355
v -3.750005 -0.156970 -3.352777
v -2.500005 -0.260790 -3.352778
v 3.749995 -0.166248 -3.352779
v -0.000005 -0.260790 -3.352779
v 2.499995 -0.260790 -3.352780
v -3.284218 3.396523 -9.051353
v 7.116230 7.678131 -15.044727
v -2.034218 3.292704 -9.051355
v 4.215783 3.387244 -9.051357
v 0.465783 3.292704 -9.051355
v -7.520581 1.393981 -6.427938
v 2.965782 3.292704 -9.051357
v -1.633770 7.049377 -15.044725
v -0.383770 6.945559 -15.044727
v 5.866230 7.040098 -15.044727
v 2.116229 6.945559 -15.044727
v 4.616230 6.945559 -15.044729
v 4.999994 0.471785 -5.852781
v -3.750006 -0.156969 -5.852777
v -2.500006 -0.260789 -5.852777
v 3.749994 -0.166248 -5.852781
v -0.000006 -0.260789 -5.852779
v 2.499994 -0.260789 -5.852779
v -12.654942 4.432337 18.470318
v -12.654943 5.438897 14.078926
v -12.654944 9.847626 7.104679
v -12.654944 8.083282 9.226560
v -12.654945 11.169603 4.982800
v -12.654946 13.644156 1.312225
v -12.654947 13.644156 -1.187773
v -12.654949 13.644156 -3.687775
v -12.654949 13.644157 -6.187775
v -12.189161 17.197649 -11.886353
v -10.538713 20.850504 -17.879725
v -12.654950 13.644156 -8.687775
v -29.106318 4.432337 18.470318
v -29.106319 5.438896 14.078926
v -29.106321 9.847625 7.104680
v -29.106319 8.083282 9.226559
v -29.106321 11.169603 4.982801
v -29.106323 13.644156 1.312225
v -29.106323 13.644156 -1.187773
v -29.106323 13.644156 -3.687774
v -29.106325 13.644156 -6.187775
v -28.640535 17.197649 -11.886353
v -26.990089 20.850504 -17.879726
v -29.106327 13.644156 -8.687775
vn 0.3400 0.9166 0.2101
vn 0.0000 0.9747 0.2234
vn -0.0754 0.8463 0.5273
vn -0.0743 0.7448 0.6631
vn 0.0000 0.8781 0.4785
vn 0.0000 0.8488 0.5288
vn 0.0000 0.7689 0.6394
vn 0.2836 0.8139 0.5071
vn 0.2505 0.7444 0.6190
vn 0.2960 0.8387 0.4571
vn 0.0826 0.8751 0.4769
vn 0.0820 0.7663 0.6372
vn 0.0828 0.8458 0.5270
vn 0.0783 0.9717 0.2227
vn -0.5050 0.7579 0.4130
vn -0.4513 0.6862 0.5706
vn -0.4546 0.7560 0.4710
vn -0.4847 0.8526 0.1954
vn 0.3804 0.9248 0.0000
vn 0.0000 1.0000 0.0000
vn -0.0754 0.9972 0.0000
vn -0.0754 0.9964 0.0377
vn 0.0828 0.9966 -0.0000
vn -0.5056 0.8628 0.0000
vn -0.4546 0.8907 0.0000
vn -0.4543 0.7338 0.5051
vn -0.0752 0.8079 0.5845
vn 0.0000 0.8102 0.5862
vn 0.0826 0.8074 0.5842
vn 0.2687 0.7831 0.5609
vn -0.6535 0.7570 0.0000
vn -0.7041 0.5880 0.3981
vn -0.6894 0.7061 0.1618
vn -0.7050 0.6227 0.3394
vn -0.6997 0.5494 0.4568
vn -0.7048 0.6021 0.3751
vn -0.2543 0.9427 0.2161
vn -0.1705 0.8159 0.5524
vn -0.2881 0.9576 0.0000
vn -0.1954 0.8612 0.4693
vn -0.1431 0.7610 0.6328
vn -0.1806 0.8348 0.5201
vn 0.1538 0.6498 0.7443
vn 0.0000 0.6690 0.7432
vn -0.3340 0.6544 0.6784
vn -0.1030 0.6729 0.7325
vn -0.6961 0.5286 0.4859
vn 0.0551 0.6640 0.7457
vn -0.0508 0.6718 0.7390
vn 0.2651 0.7414 0.6165
vn 0.5862 0.8102 -0.0000
vn 0.3909 0.8082 0.4404
vn 0.5188 0.8333 0.1910
vn 0.3336 0.7817 0.5270
vn 0.3563 0.7930 0.4941
vn 0.1436 0.6516 0.7448
vn -0.6977 0.6808 0.2228
vn 0.3128 0.7703 0.5556
vn 0.0000 0.8539 0.5204
vn 0.2435 0.7970 0.5528
vn -0.1950 0.8605 0.4707
vn 0.0700 0.8431 0.5331
vn -0.0650 0.8600 0.5062
vn -0.4195 0.8219 0.3854
vn 1.0000 0.0000 -0.0000
vn 0.9641 0.0000 0.2655
vn 0.9896 -0.0000 0.1441
vn 0.0000 0.8292 0.5590
vn -0.5002 0.6468 0.5758
vn -0.5054 0.8623 0.0326
vn -0.4366 0.7450 0.5044
vn 0.0000 0.8237 0.5670
vn 0.0674 0.8111 0.5810
vn 0.2478 0.8033 0.5416
s off
f 47//1 5//1 15//1
f 67//2 22//2 25//2
f 58//2 22//2 63//2
f 54//2 18//2 58//2
f 64//3 66//3 61//3
f 66//4 74//4 61//4
f 73//5 67//5 74//5
f 62//6 66//6 69//6
f 59//7 73//7 66//7
f 72//5 63//5 73//5
f 57//6 59//6 62//6
f 55//7 72//7 59//7
f 71//5 58//5 72//5
f 50//8 21//8 48//8
f 48//9 28//9 70//9
f 70//10 19//10 47//10
f 70//11 54//11 71//11
f 55//12 70//12 71//12
f 50//13 55//13 57//13
f 47//14 17//14 54//14
f 46//15 67//15 34//15
f 61//16 46//16 37//16
f 39//17 61//17 37//17
f 34//18 25//18 11//18
f 78//19 24//19 43//19
f 82//20 56//20 60//20
f 80//20 56//20 81//20
f 80//20 49//20 51//20
f 120//21 100//21 118//21
f 102//22 92//22 100//22
f 92//20 81//20 82//20
f 120//20 101//20 102//20
f 101//20 91//20 102//20
f 90//20 81//20 91//20
f 117//20 101//20 119//20
f 99//20 90//20 101//20
f 89//20 80//20 90//20
f 116//19 93//19 98//19
f 98//19 84//19 88//19
f 88//19 65//19 78//19
f 89//23 78//23 79//23
f 98//23 89//23 99//23
f 116//23 99//23 117//23
f 79//23 43//23 49//23
f 92//24 76//24 86//24
f 100//25 86//25 96//25
f 118//25 96//25 115//25
f 82//24 38//24 76//24
f 39//26 60//26 64//26
f 64//27 56//27 69//27
f 69//28 51//28 62//28
f 62//28 49//28 57//28
f 49//29 50//29 57//29
f 43//30 23//30 50//30
f 96//31 45//31 115//31
f 38//32 14//32 20//32
f 11//33 10//33 34//33
f 38//31 9//31 76//31
f 34//34 8//34 46//34
f 76//31 12//31 86//31
f 37//35 8//35 13//35
f 86//31 26//31 96//31
f 39//36 13//36 14//36
f 10//37 75//37 35//37
f 20//38 42//38 53//38
f 9//39 53//39 30//39
f 8//40 35//40 32//40
f 12//39 30//39 27//39
f 13//41 32//41 41//41
f 14//42 41//42 42//42
f 26//39 27//39 29//39
f 45//39 29//39 40//39
f 108//43 103//43 94//43
f 120//44 107//44 119//44
f 115//45 106//45 118//45
f 40//46 33//46 45//46
f 45//47 97//47 115//47
f 119//44 105//44 117//44
f 117//48 103//48 116//48
f 118//49 109//49 120//49
f 21//50 4//50 28//50
f 93//51 44//51 84//51
f 28//52 2//52 19//52
f 19//53 1//53 5//53
f 84//51 16//51 65//51
f 65//51 7//51 24//51
f 24//54 6//54 23//54
f 23//55 3//55 21//55
f 94//56 87//56 108//56
f 108//51 77//51 93//51
f 33//57 104//57 97//57
f 83//58 95//58 85//58
f 107//59 111//59 105//59
f 94//60 110//60 95//60
f 36//61 52//61 33//61
f 105//62 110//62 103//62
f 106//63 114//63 109//63
f 97//64 112//64 106//64
f 109//59 113//59 107//59
f 4//65 122//65 2//65
f 2//65 121//65 1//65
f 16//65 128//65 127//65
f 16//65 126//65 7//65
f 6//65 123//65 3//65
f 85//66 130//66 83//66
f 7//65 125//65 6//65
f 77//65 132//65 129//65
f 3//65 124//65 4//65
f 83//67 132//67 87//67
f 77//65 128//65 44//65
f 132//44 142//44 144//44
f 129//20 140//20 128//20
f 124//5 134//5 122//5
f 130//59 143//59 142//59
f 122//2 133//2 121//2
f 128//20 139//20 127//20
f 127//20 138//20 126//20
f 125//6 135//6 123//6
f 126//68 137//68 125//68
f 132//20 141//20 129//20
f 123//7 136//7 124//7
f 47//1 19//1 5//1
f 67//2 63//2 22//2
f 58//2 18//2 22//2
f 54//2 17//2 18//2
f 64//3 69//3 66//3
f 66//7 73//7 74//7
f 73//5 63//5 67//5
f 62//6 59//6 66//6
f 59//7 72//7 73//7
f 72//5 58//5 63//5
f 57//6 55//6 59//6
f 55//7 71//7 72//7
f 71//5 54//5 58//5
f 50//8 23//8 21//8
f 48//9 21//9 28//9
f 70//10 28//10 19//10
f 70//11 47//11 54//11
f 55//12 48//12 70//12
f 50//13 48//13 55//13
f 47//14 15//14 17//14
f 46//15 74//15 67//15
f 61//69 74//69 46//69
f 39//17 64//17 61//17
f 34//18 67//18 25//18
f 78//19 65//19 24//19
f 82//20 81//20 56//20
f 80//20 51//20 56//20
f 80//20 79//20 49//20
f 120//21 102//21 100//21
f 102//20 91//20 92//20
f 92//20 91//20 81//20
f 120//20 119//20 101//20
f 101//20 90//20 91//20
f 90//20 80//20 81//20
f 117//20 99//20 101//20
f 99//20 89//20 90//20
f 89//20 79//20 80//20
f 116//19 108//19 93//19
f 98//19 93//19 84//19
f 88//19 84//19 65//19
f 89//23 88//23 78//23
f 98//23 88//23 89//23
f 116//23 98//23 99//23
f 79//23 78//23 43//23
f 92//24 82//24 76//24
f 100//70 92//70 86//70
f 118//25 100//25 96//25
f 82//24 60//24 38//24
f 39//71 38//71 60//71
f 64//72 60//72 56//72
f 69//28 56//28 51//28
f 62//28 51//28 49//28
f 49//73 43//73 50//73
f 43//74 24//74 23//74
f 96//31 26//31 45//31
f 38//32 39//32 14//32
f 11//33 31//33 10//33
f 38//31 20//31 9//31
f 34//34 10//34 8//34
f 76//31 9//31 12//31
f 37//35 46//35 8//35
f 86//31 12//31 26//31
f 39//36 37//36 13//36
f 10//37 31//37 75//37
f 20//38 14//38 42//38
f 9//39 20//39 53//39
f 8//40 10//40 35//40
f 12//39 9//39 30//39
f 13//41 8//41 32//41
f 14//42 13//42 41//42
f 26//39 12//39 27//39
f 45//39 26//39 29//39
f 108//43 116//43 103//43
f 120//44 109//44 107//44
f 115//45 97//45 106//45
f 40//46 36//46 33//46
f 45//47 33//47 97//47
f 119//44 107//44 105//44
f 117//48 105//48 103//48
f 118//49 106//49 109//49
f 21//50 3//50 4//50
f 93//51 77//51 44//51
f 28//52 4//52 2//52
f 19//53 2//53 1//53
f 84//51 44//51 16//51
f 65//51 16//51 7//51
f 24//54 7//54 6//54
f 23//55 6//55 3//55
f 94//56 83//56 87//56
f 108//51 87//51 77//51
f 33//57 52//57 104//57
f 83//58 94//58 95//58
f 107//59 113//59 111//59
f 94//60 103//60 110//60
f 36//61 68//61 52//61
f 105//62 111//62 110//62
f 106//63 112//63 114//63
f 97//64 104//64 112//64
f 109//59 114//59 113//59
f 4//65 124//65 122//65
f 2//65 122//65 121//65
f 16//65 44//65 128//65
f 16//65 127//65 126//65
f 6//65 125//65 123//65
f 85//66 131//66 130//66
f 7//65 126//65 125//65
f 77//65 87//65 132//65
f 3//65 123//65 124//65
f 83//67 130//67 132//67
f 77//65 129//65 128//65
f 132//44 130//44 142//44
f 129//20 141//20 140//20
f 124//5 136//5 134//5
f 130//59 131//59 143//59
f 122//2 134//2 133//2
f 128//20 140//20 139//20
f 127//20 139//20 138//20
f 125//6 137//6 135//6
f 126//68 138//68 137//68
f 132//20 144//20 141//20
f 123//7 135//7 136//7
